<?xml version="1.0" encoding="utf-8"?>
<!-- Generator: Adobe Illustrator 18.0.0, SVG Export Plug-In . SVG Version: 6.00 Build 0)  -->
<!DOCTYPE svg PUBLIC "-//W3C//DTD SVG 1.1//EN" "http://www.w3.org/Graphics/SVG/1.1/DTD/svg11.dtd">
<svg version="1.1" id="Capa_1" xmlns="http://www.w3.org/2000/svg" xmlns:xlink="http://www.w3.org/1999/xlink" x="0px" y="0px"
	 viewBox="0 0 48 48" enable-background="new 0 0 48 48" xml:space="preserve">
<g id="Layer_1">
	<g>
		<path d="M37.6,30.7c-2.9,4.5-8,7.4-13.7,7.4c-5.7,0-10.8-2.9-13.7-7.4c-5.6,1.2-9.2,3-9.2,5.1c0,3.5,10.3,6.3,22.9,6.3
			c12.6,0,22.9-2.8,22.9-6.3C46.8,33.7,43.2,31.9,37.6,30.7z"/>
		<path d="M23.9,35.1c6,0,11.2-4,12.9-9.4c1,0.5,2,0.8,3.2,0.8c3.9,0,7-3.2,7-7s-3.2-7.1-7-7.1c-0.9,0-1.8,0.2-2.6,0.5
			c-0.3-1.9-2-3.4-4-3.4H14.5c-2.2,0-4.1,1.8-4.1,4.1v8.1C10.4,29.1,16.5,35.1,23.9,35.1z M40,16.3c1.7,0,3.1,1.4,3.1,3.1
			s-1.4,3.1-3.1,3.1c-1.1,0-2-0.6-2.6-1.4v-3.4C37.9,16.9,38.9,16.3,40,16.3z"/>
	</g>
</g>
</svg>
