<?xml version="1.0" encoding="utf-8"?>
<!-- Generator: Adobe Illustrator 18.0.0, SVG Export Plug-In . SVG Version: 6.00 Build 0)  -->
<!DOCTYPE svg PUBLIC "-//W3C//DTD SVG 1.1//EN" "http://www.w3.org/Graphics/SVG/1.1/DTD/svg11.dtd">
<svg version="1.1" id="Capa_1" xmlns="http://www.w3.org/2000/svg" xmlns:xlink="http://www.w3.org/1999/xlink" x="0px" y="0px"
	 viewBox="0 0 48 48" enable-background="new 0 0 48 48" xml:space="preserve">
<g id="Layer_1">
	<g>
		<path d="M45.9,38.2L33.2,25.3c-0.5,0.3-0.9,0.5-1.5,0.7c-0.6,0.2-1.3,0.3-2,0.3c-0.8,0-1.6-0.2-2.3-0.4l-4.1,4.3
			c0.5,0.4,1.2,0.6,1.9,0.7c0.9,0,1.8-0.3,2.5-1l0.1-0.1l12.7,13.5c0.5,0.5,1.2,0.8,1.9,0.8s1.4-0.3,1.9-0.8l1.6-1.6
			c0.5-0.5,0.8-1.2,0.8-1.9S46.4,38.6,45.9,38.2z"/>
		<path d="M15.5,21.3l3.8-3.6C19.1,17,19,16.3,19,15.6c0-1.2,0.4-2.4,1-3.4l-8-8.3c-1.2-1.2-3.3-1.2-4.5,0C5.4,6,5.3,9.4,7.2,11.7
			L15.5,21.3z"/>
		<path d="M27.5,22.5c0.6,0.6,1.4,0.9,2.2,0.9c0.8,0,1.6-0.3,2.2-0.9l10.1-10.1c0.4-0.4,0.4-1,0-1.4l-0.2-0.2
			c-0.2-0.2-0.4-0.3-0.7-0.3c-0.3,0-0.5,0.1-0.7,0.3l-6.7,6.7c-0.3,0.3-0.7,0.4-1.1,0.4c-0.4,0-0.8-0.2-1.1-0.4l-0.2-0.2
			c-0.6-0.6-0.6-1.5,0-2.1l6.7-6.7c0.4-0.4,0.4-1,0-1.4l-0.2-0.2c-0.2-0.2-0.4-0.3-0.7-0.3c-0.3,0-0.5,0.1-0.7,0.3l-6.7,6.7
			c-0.3,0.3-0.7,0.4-1.1,0.4c-0.4,0-0.8-0.2-1.1-0.4l-0.2-0.2c-0.3-0.3-0.4-0.7-0.4-1.1c0-0.4,0.2-0.8,0.4-1.1l6.7-6.7
			c0.2-0.2,0.3-0.4,0.3-0.7c0-0.3-0.1-0.5-0.3-0.7l-0.2-0.2c-0.2-0.2-0.4-0.3-0.7-0.3S33.1,3,32.9,3.2L22.8,13.3
			c-0.6,0.6-0.9,1.4-0.9,2.2c0,0.8,0.3,1.7,0.9,2.2l0.3,0.3L2.2,37.8c-0.5,0.5-0.8,1.2-0.8,1.9c0,0.7,0.3,1.4,0.8,1.9l1.5,1.7
			c0.5,0.5,1.2,1,1.9,1c0,0,0,0,0,0c0.7,0,1.4-0.5,1.9-1l19.7-21.1L27.5,22.5z"/>
	</g>
</g>
</svg>
