<?xml version="1.0" encoding="iso-8859-1"?>
<!-- Generator: Adobe Illustrator 18.1.1, SVG Export Plug-In . SVG Version: 6.00 Build 0)  -->
<svg version="1.1" id="Capa_1" xmlns="http://www.w3.org/2000/svg" xmlns:xlink="http://www.w3.org/1999/xlink" x="0px" y="0px"
	 viewBox="0 0 54.92 54.92" style="enable-background:new 0 0 54.92 54.92;" xml:space="preserve">
<g>
	<path d="M53.569,22.6H40.433L50.867,4.524c0.375-0.748,0.072-1.66-0.675-2.037c-0.732-0.365-1.677-0.039-2.023,0.652l-9.265,16.134
		l5.76-17.402c0.095-0.395,0.031-0.803-0.181-1.148c-0.212-0.346-0.545-0.586-0.937-0.68c-0.803-0.201-1.641,0.322-1.82,1.074
		L34.556,22.6H1.352v0.9c0,12.447,6.943,22,9.973,25.576c-1.368,0.164-2.809,1.262-2.809,2.643c0,1.975,1.21,3.201,3.157,3.201
		h30.162c2.139,0,3.316-1.137,3.316-3.201c0-1.205-1.131-2.104-2.253-2.477c3.244-3.332,10.67-12.416,10.67-25.742V22.6z
		 M49.05,3.612c0.088-0.176,0.266-0.285,0.463-0.285c0.08,0,0.158,0.018,0.23,0.055c0.255,0.127,0.357,0.439,0.244,0.668
		L39.279,22.6h-1.011c-0.011-0.096-0.005-0.191,0.03-0.262L49.05,3.612z M42.688,1.393c0.065-0.271,0.339-0.449,0.625-0.379
		c0.133,0.033,0.246,0.115,0.317,0.23c0.072,0.119,0.095,0.258,0.073,0.354L36.752,22.6H35.61L42.688,1.393z M40.265,49.27
		l-1.87,1.586h3.44c0.683,0,1.516,0.578,1.516,0.863c0,0.908-0.241,1.4-1.516,1.4H11.673c-0.705,0-1.356-0.168-1.356-1.4
		c0-0.332,0.74-0.863,1.356-0.863h3.832l-1.538-1.537C13.862,49.213,3.583,38.78,3.165,24.401h48.591
		C51.337,39.702,40.378,49.174,40.265,49.27z"/>
	<path d="M45.44,30.756l-1.723-0.52c-1.089,3.615-3.6,10.422-8.186,15.381l1.322,1.223C41.684,41.614,44.307,34.52,45.44,30.756z"/>
</g>
<g>
</g>
<g>
</g>
<g>
</g>
<g>
</g>
<g>
</g>
<g>
</g>
<g>
</g>
<g>
</g>
<g>
</g>
<g>
</g>
<g>
</g>
<g>
</g>
<g>
</g>
<g>
</g>
<g>
</g>
</svg>
